<svg width="500" height="400" viewBox="0 0 500 400" fill="none" xmlns="http://www.w3.org/2000/svg">
  <rect x="100" y="80" width="300" height="240" rx="8" fill="#FFFFFF" stroke="#008080" stroke-width="2"/>
  <rect x="120" y="100" width="260" height="30" rx="4" fill="#008080" opacity="0.1"/>
  <circle cx="135" cy="115" r="8" fill="#008080"/>
  <rect x="150" y="110" width="100" height="10" rx="2" fill="#008080" opacity="0.3"/>
  <rect x="120" y="140" width="260" height="1" fill="#E5E5E5"/>
  <rect x="120" y="160" width="80" height="80" rx="4" fill="#008080" opacity="0.1"/>
  <circle cx="160" cy="200" r="30" fill="#008080" opacity="0.2"/>
  <path d="M160 180V200H180" stroke="#008080" stroke-width="2"/>
  <rect x="220" y="160" width="160" height="15" rx="2" fill="#008080" opacity="0.1"/>
  <rect x="220" y="185" width="120" height="15" rx="2" fill="#008080" opacity="0.2"/>
  <rect x="220" y="210" width="140" height="15" rx="2" fill="#008080" opacity="0.1"/>
  <rect x="120" y="260" width="260" height="40" rx="4" fill="#F5F5F5"/>
  <rect x="140" y="275" width="220" height="10" rx="2" fill="#008080" opacity="0.2"/>
</svg>
